<svg width="20" height="20" viewBox="0 0 20 20" fill="none" xmlns="http://www.w3.org/2000/svg">
<path d="M13.9687 13.4727L15.0799 12.2227C15.2535 12.0273 15.5556 12.1641 15.5556 12.4453V18.125C15.5556 19.1602 14.809 20 13.8889 20H1.66667C0.746528 20 0 19.1602 0 18.125V4.375C0 3.33984 0.746528 2.5 1.66667 2.5H11.1632C11.4097 2.5 11.5347 2.83594 11.3611 3.03516L10.25 4.28516C10.1979 4.34375 10.1285 4.375 10.0521 4.375H1.66667V18.125H13.8889V13.6914C13.8889 13.6094 13.9167 13.5313 13.9687 13.4727ZM19.4062 5.58984L10.2882 15.8477L7.1493 16.2383C6.23958 16.3516 5.46528 15.4883 5.56597 14.457L5.91319 10.9258L15.0312 0.667969C15.8264 -0.226563 17.1111 -0.226563 17.9028 0.667969L19.4028 2.35547C20.1979 3.25 20.1979 4.69922 19.4062 5.58984V5.58984ZM15.9757 6.79687L13.9583 4.52734L7.50694 11.7891L7.25347 14.3398L9.52083 14.0547L15.9757 6.79687ZM18.2257 3.68359L16.7257 1.99609C16.5833 1.83594 16.3507 1.83594 16.2118 1.99609L15.1389 3.20312L17.1562 5.47266L18.2292 4.26562C18.3681 4.10156 18.3681 3.84375 18.2257 3.68359V3.68359Z" fill="#319BD7"/>
</svg>
