<svg width="30" height="30" viewBox="0 0 30 30" fill="none" xmlns="http://www.w3.org/2000/svg">
<g clip-path="url(#clip0)">
<path d="M14.6024 8.68711L4.9998 17.5846V27.1875C4.9998 27.4361 5.0876 27.6746 5.24388 27.8504C5.40016 28.0262 5.61212 28.125 5.83313 28.125L11.6696 28.108C11.8899 28.1068 12.1008 28.0075 12.2561 27.8318C12.4115 27.6561 12.4988 27.4183 12.4987 27.1705V21.5625C12.4987 21.3139 12.5865 21.0754 12.7428 20.8996C12.8991 20.7238 13.1111 20.625 13.3321 20.625H16.6654C16.8864 20.625 17.0984 20.7238 17.2547 20.8996C17.4109 21.0754 17.4987 21.3139 17.4987 21.5625V27.1664C17.4984 27.2898 17.5197 27.412 17.5614 27.5261C17.6032 27.6402 17.6645 27.7439 17.7419 27.8312C17.8193 27.9186 17.9113 27.9879 18.0126 28.0352C18.1138 28.0825 18.2224 28.1068 18.3321 28.1068L24.1664 28.125C24.3875 28.125 24.5994 28.0262 24.7557 27.8504C24.912 27.6746 24.9998 27.4361 24.9998 27.1875V17.5781L15.3993 8.68711C15.2864 8.58476 15.1458 8.52895 15.0008 8.52895C14.8559 8.52895 14.7153 8.58476 14.6024 8.68711ZM29.7706 14.7346L25.4164 10.6969V2.58105C25.4164 2.39457 25.3506 2.21573 25.2334 2.08387C25.1162 1.95201 24.9572 1.87793 24.7914 1.87793H21.8748C21.709 1.87793 21.5501 1.95201 21.4328 2.08387C21.3156 2.21573 21.2498 2.39457 21.2498 2.58105V6.83555L16.5868 2.51953C16.1393 2.10526 15.5778 1.87876 14.9982 1.87876C14.4187 1.87876 13.8572 2.10526 13.4097 2.51953L0.225845 14.7346C0.162558 14.7934 0.110197 14.8657 0.0717556 14.9473C0.033314 15.029 0.00954466 15.1183 0.00180581 15.2103C-0.00593304 15.3022 0.00251024 15.395 0.0266532 15.4833C0.0507962 15.5716 0.0901657 15.6536 0.142512 15.7248L1.47064 17.5412C1.52284 17.6126 1.58705 17.6718 1.65959 17.7152C1.73214 17.7587 1.81158 17.7856 1.89339 17.7945C1.9752 17.8034 2.05776 17.794 2.13634 17.7669C2.21493 17.7398 2.288 17.6956 2.35136 17.6367L14.6024 6.28477C14.7153 6.18242 14.8559 6.1266 15.0008 6.1266C15.1458 6.1266 15.2864 6.18242 15.3993 6.28477L27.6508 17.6367C27.7141 17.6956 27.787 17.7399 27.8655 17.7671C27.944 17.7942 28.0264 17.8037 28.1082 17.795C28.1899 17.7863 28.2693 17.7596 28.3419 17.7163C28.4145 17.6731 28.4787 17.6142 28.531 17.543L29.8591 15.7266C29.9114 15.655 29.9506 15.5725 29.9745 15.4838C29.9984 15.3951 30.0064 15.302 29.9982 15.2099C29.99 15.1177 29.9656 15.0282 29.9266 14.9467C29.8875 14.8651 29.8345 14.793 29.7706 14.7346Z" fill="white"/>
</g>
<defs>
<clipPath id="clip0">
<rect width="30" height="30" fill="white"/>
</clipPath>
</defs>
</svg>
