<svg width="30" height="30" viewBox="0 0 30 30" fill="none" xmlns="http://www.w3.org/2000/svg">
<path d="M29.4531 6.15234L21.8047 0.410156C21.4531 0.146484 20.9766 0 20.4766 0H20V7.5H30V7.14258C30 6.77344 29.8047 6.41602 29.4531 6.15234ZM17.5 7.96875V0H1.875C0.835938 0 0 0.626953 0 1.40625V28.5938C0 29.373 0.835938 30 1.875 30H28.125C29.1641 30 30 29.373 30 28.5938V9.375H19.375C18.3438 9.375 17.5 8.74219 17.5 7.96875ZM5 4.21875C5 3.95977 5.27969 3.75 5.625 3.75H11.875C12.2203 3.75 12.5 3.95977 12.5 4.21875V5.15625C12.5 5.41523 12.2203 5.625 11.875 5.625H5.625C5.27969 5.625 5 5.41523 5 5.15625V4.21875ZM5 8.90625V7.96875C5 7.70977 5.27969 7.5 5.625 7.5H11.875C12.2203 7.5 12.5 7.70977 12.5 7.96875V8.90625C12.5 9.16523 12.2203 9.375 11.875 9.375H5.625C5.27969 9.375 5 9.16523 5 8.90625ZM16.25 24.368V25.7812C16.25 26.0402 15.9703 26.25 15.625 26.25H14.375C14.0297 26.25 13.75 26.0402 13.75 25.7812V24.358C12.868 24.324 12.0102 24.0932 11.2992 23.693C10.9945 23.5213 10.9789 23.1791 11.2547 22.9816L12.1727 22.3248C12.3891 22.1701 12.7109 22.1631 12.9641 22.282C13.2664 22.4238 13.6094 22.5 13.9656 22.5H16.1617C16.6695 22.5 17.0836 22.1531 17.0836 21.7271C17.0836 21.3785 16.8016 21.0715 16.3984 20.9812L12.8828 20.1902C11.4305 19.8633 10.4156 18.818 10.4156 17.6479C10.4156 16.2111 11.9039 15.0439 13.7492 15.007V13.5938C13.7492 13.3348 14.0289 13.125 14.3742 13.125H15.6242C15.9695 13.125 16.2492 13.3348 16.2492 13.5938V15.017C17.1313 15.051 17.9891 15.2813 18.7 15.682C19.0047 15.8537 19.0203 16.1959 18.7445 16.3934L17.8266 17.0502C17.6102 17.2049 17.2883 17.2119 17.0352 17.093C16.7328 16.9506 16.3898 16.875 16.0336 16.875H13.8375C13.3297 16.875 12.9156 17.2219 12.9156 17.6479C12.9156 17.9965 13.1977 18.3035 13.6008 18.3938L17.1164 19.1848C18.5688 19.5117 19.5836 20.557 19.5836 21.7271C19.5836 23.1645 18.0953 24.3311 16.25 24.368Z" fill="#37C293"/>
</svg>
