<svg width="30" height="30" viewBox="0 0 30 30" fill="none" xmlns="http://www.w3.org/2000/svg">
<path d="M22.5 15H7.5V18.75H22.5V15ZM29.4531 6.15234L21.8047 0.410156C21.4531 0.146484 20.9766 0 20.4766 0H20V7.5H30V7.14258C30 6.77344 29.8047 6.41602 29.4531 6.15234ZM17.5 7.96875V0H1.875C0.835937 0 0 0.626953 0 1.40625V28.5938C0 29.373 0.835937 30 1.875 30H28.125C29.1641 30 30 29.373 30 28.5938V9.375H19.375C18.3438 9.375 17.5 8.74219 17.5 7.96875ZM5 4.21875C5 3.95977 5.27969 3.75 5.625 3.75H11.875C12.2203 3.75 12.5 3.95977 12.5 4.21875V5.15625C12.5 5.41523 12.2203 5.625 11.875 5.625H5.625C5.27969 5.625 5 5.41523 5 5.15625V4.21875ZM5 7.96875C5 7.70977 5.27969 7.5 5.625 7.5H11.875C12.2203 7.5 12.5 7.70977 12.5 7.96875V8.90625C12.5 9.16523 12.2203 9.375 11.875 9.375H5.625C5.27969 9.375 5 9.16523 5 8.90625V7.96875ZM25 25.7812C25 26.0402 24.7203 26.25 24.375 26.25H18.125C17.7797 26.25 17.5 26.0402 17.5 25.7812V24.8438C17.5 24.5848 17.7797 24.375 18.125 24.375H24.375C24.7203 24.375 25 24.5848 25 24.8438V25.7812ZM25 14.0625V19.6875C25 20.2055 24.4406 20.625 23.75 20.625H6.25C5.55937 20.625 5 20.2055 5 19.6875V14.0625C5 13.5445 5.55937 13.125 6.25 13.125H23.75C24.4406 13.125 25 13.5445 25 14.0625Z" fill="white"/>
</svg>
