<svg width="20" height="20" viewBox="0 0 20 20" fill="none" xmlns="http://www.w3.org/2000/svg">
<path d="M15 10H5V12.5H15V10ZM19.6354 4.10156L14.5365 0.273438C14.3021 0.0976562 13.9844 0 13.651 0H13.3333V5H20V4.76172C20 4.51562 19.8698 4.27734 19.6354 4.10156ZM11.6667 5.3125V0H1.25C0.557292 0 0 0.417969 0 0.9375V19.0625C0 19.582 0.557292 20 1.25 20H18.75C19.4427 20 20 19.582 20 19.0625V6.25H12.9167C12.2292 6.25 11.6667 5.82812 11.6667 5.3125ZM3.33333 2.8125C3.33333 2.63984 3.51979 2.5 3.75 2.5H7.91667C8.14687 2.5 8.33333 2.63984 8.33333 2.8125V3.4375C8.33333 3.61016 8.14687 3.75 7.91667 3.75H3.75C3.51979 3.75 3.33333 3.61016 3.33333 3.4375V2.8125ZM3.33333 5.3125C3.33333 5.13984 3.51979 5 3.75 5H7.91667C8.14687 5 8.33333 5.13984 8.33333 5.3125V5.9375C8.33333 6.11016 8.14687 6.25 7.91667 6.25H3.75C3.51979 6.25 3.33333 6.11016 3.33333 5.9375V5.3125ZM16.6667 17.1875C16.6667 17.3602 16.4802 17.5 16.25 17.5H12.0833C11.8531 17.5 11.6667 17.3602 11.6667 17.1875V16.5625C11.6667 16.3898 11.8531 16.25 12.0833 16.25H16.25C16.4802 16.25 16.6667 16.3898 16.6667 16.5625V17.1875ZM16.6667 9.375V13.125C16.6667 13.4703 16.2937 13.75 15.8333 13.75H4.16667C3.70625 13.75 3.33333 13.4703 3.33333 13.125V9.375C3.33333 9.02969 3.70625 8.75 4.16667 8.75H15.8333C16.2937 8.75 16.6667 9.02969 16.6667 9.375Z" fill="#319BD7"/>
</svg>
