<svg width="35" height="35" viewBox="0 0 35 35" fill="none" xmlns="http://www.w3.org/2000/svg">
<g clip-path="url(#clip0)">
<path d="M35 12.0313C35 18.676 29.6134 24.0625 22.9688 24.0625C22.2018 24.0625 21.4519 23.9899 20.7247 23.8527L19.0833 25.6994C18.9293 25.8725 18.7405 26.0111 18.5291 26.106C18.3178 26.2009 18.0887 26.25 17.857 26.25H15.3125V28.9844C15.3125 29.8905 14.578 30.625 13.6719 30.625H10.9375V33.3594C10.9375 34.2655 10.203 35 9.29688 35H1.64062C0.734521 35 0 34.2655 0 33.3594V28.0233C0 27.5882 0.172881 27.1709 0.480498 26.8632L11.5412 15.8025C11.15 14.6162 10.9375 13.3486 10.9375 12.0312C10.9375 5.38658 16.324 6.836e-05 22.9687 6.53008e-10C29.633 -6.83587e-05 35 5.36696 35 12.0313ZM22.9688 8.75C22.9688 10.5622 24.4378 12.0312 26.25 12.0312C28.0622 12.0312 29.5312 10.5622 29.5312 8.75C29.5312 6.93779 28.0622 5.46875 26.25 5.46875C24.4378 5.46875 22.9688 6.93779 22.9688 8.75Z" fill="white"/>
</g>
<defs>
<clipPath id="clip0">
<rect width="35" height="35" fill="white"/>
</clipPath>
</defs>
</svg>
