<svg width="30" height="30" viewBox="0 0 30 30" fill="none" xmlns="http://www.w3.org/2000/svg">
<path d="M8.18693 26.6221C8.18778 26.9907 8.34631 27.3516 8.64375 27.6587L10.1003 29.1639C10.3491 29.4212 10.6866 29.6323 11.0827 29.7783C11.4788 29.9242 11.9213 30.0006 12.3707 30.0006H17.6301C18.0796 30.0006 18.522 29.9242 18.9181 29.7783C19.3143 29.6323 19.6518 29.4212 19.9006 29.1639L21.3571 27.6587C21.6544 27.3516 21.8133 26.991 21.8139 26.6221L21.8173 24.3751H8.18267L8.18693 26.6221ZM0 10.3126C0 12.9124 1.40199 15.2842 3.7125 17.0965C5.12045 18.201 7.32273 20.5085 8.16222 22.4549C8.16562 22.4702 8.16818 22.4854 8.17159 22.5006H21.8284C21.8318 22.4854 21.8344 22.4708 21.8378 22.4549C22.6773 20.5085 24.8795 18.201 26.2875 17.0965C28.598 15.2842 30 12.9124 30 10.3126C30 4.60611 23.2594 -0.0175282 14.9531 4.99558e-05C6.25909 0.018214 0 4.86157 0 10.3126ZM15 5.62505C11.2406 5.62505 8.18182 7.72798 8.18182 10.3126C8.18182 10.8305 7.57159 11.2501 6.81818 11.2501C6.06477 11.2501 5.45455 10.8305 5.45455 10.3126C5.45455 6.6938 9.73636 3.75005 15 3.75005C15.7534 3.75005 16.3636 4.16958 16.3636 4.68755C16.3636 5.20552 15.7534 5.62505 15 5.62505Z" fill="white"/>
</svg>
