<svg width="30" height="30" viewBox="0 0 30 30" fill="none" xmlns="http://www.w3.org/2000/svg">
<g clip-path="url(#clip0)">
<path d="M8.18693 26.6213C8.18778 26.9898 8.34631 27.3508 8.64375 27.6578L10.1003 29.1631C10.3491 29.4204 10.6866 29.6314 11.0827 29.7774C11.4788 29.9234 11.9213 29.9998 12.3707 29.9998H17.6301C18.0796 29.9998 18.522 29.9234 18.9181 29.7774C19.3143 29.6314 19.6518 29.4204 19.9006 29.1631L21.3571 27.6578C21.6544 27.3507 21.8133 26.9902 21.8139 26.6213L21.8173 24.3742H8.18267L8.18693 26.6213ZM0 10.3117C0 12.9115 1.40199 15.2834 3.7125 17.0957C5.12045 18.2002 7.32273 20.5076 8.16222 22.4541C8.16562 22.4693 8.16818 22.4846 8.17159 22.4998H21.8284C21.8318 22.4846 21.8344 22.4699 21.8378 22.4541C22.6773 20.5076 24.8795 18.2002 26.2875 17.0957C28.598 15.2834 30 12.9115 30 10.3117C30 4.60525 23.2594 -0.0183808 14.9531 -0.000802629C6.25909 0.0173614 0 4.86072 0 10.3117ZM15 5.6242C11.2406 5.6242 8.18182 7.72713 8.18182 10.3117C8.18182 10.8297 7.57159 11.2492 6.81818 11.2492C6.06477 11.2492 5.45455 10.8297 5.45455 10.3117C5.45455 6.69295 9.73636 3.7492 15 3.7492C15.7534 3.7492 16.3636 4.16873 16.3636 4.6867C16.3636 5.20467 15.7534 5.6242 15 5.6242Z" fill="#319BD7"/>
</g>
<defs>
<clipPath id="clip0">
<rect width="30" height="30" fill="white"/>
</clipPath>
</defs>
</svg>
